<?xml version="1.0" encoding="UTF-8"?>
<svg xmlns="http://www.w3.org/2000/svg" xmlns:xlink="http://www.w3.org/1999/xlink" width="32pt" height="32pt" viewBox="0 0 32 32" version="1.1">
<g id="surface1">
<path style=" stroke:none;fill-rule:nonzero;fill:rgb(13.72549%,12.156863%,12.54902%);fill-opacity:1;" d="M 28.105469 9.332031 C 27.636719 8.519531 26.777344 8.015625 25.839844 8 L 8.773438 8 L 8 4.988281 C 7.839844 4.386719 7.285156 3.980469 6.667969 4 L 4 4 C 3.261719 4 2.667969 4.597656 2.667969 5.332031 C 2.667969 6.070312 3.261719 6.667969 4 6.667969 L 5.652344 6.667969 L 9.332031 20.347656 C 9.496094 20.945312 10.046875 21.355469 10.667969 21.332031 L 22.667969 21.332031 C 23.167969 21.332031 23.628906 21.046875 23.851562 20.601562 L 28.226562 11.851562 C 28.613281 11.046875 28.566406 10.101562 28.105469 9.332031 Z M 21.839844 18.667969 L 11.679688 18.667969 L 9.507812 10.667969 L 25.839844 10.667969 Z M 21.839844 18.667969 "/>
<path style=" stroke:none;fill-rule:nonzero;fill:rgb(13.72549%,12.156863%,12.54902%);fill-opacity:1;" d="M 12 26 C 12 27.105469 11.105469 28 10 28 C 8.894531 28 8 27.105469 8 26 C 8 24.894531 8.894531 24 10 24 C 11.105469 24 12 24.894531 12 26 Z M 12 26 "/>
<path style=" stroke:none;fill-rule:nonzero;fill:rgb(13.72549%,12.156863%,12.54902%);fill-opacity:1;" d="M 25.332031 26 C 25.332031 27.105469 24.4375 28 23.332031 28 C 22.230469 28 21.332031 27.105469 21.332031 26 C 21.332031 24.894531 22.230469 24 23.332031 24 C 24.4375 24 25.332031 24.894531 25.332031 26 Z M 25.332031 26 "/>
</g>
</svg>
